Coordinates
version=1
nRows=13
nColumns=40
inDegrees=yes

Units are S.I. units (second, meters, Newtons, ...)
Angles are in degrees.

endheader
time	pelvis_tilt	pelvis_list	pelvis_rotation	pelvis_tx	pelvis_ty	pelvis_tz	hip_flexion_r	hip_adduction_r	hip_rotation_r	knee_angle_r	knee_angle_r_beta	ankle_angle_r	subtalar_angle_r	mtp_angle_r	hip_flexion_l	hip_adduction_l	hip_rotation_l	knee_angle_l	knee_angle_l_beta	ankle_angle_l	subtalar_angle_l	mtp_angle_l	lumbar_extension	lumbar_bending	lumbar_rotation	arm_flex_r	arm_add_r	arm_rot_r	elbow_flex_r	pro_sup_r	wrist_flex_r	wrist_dev_r	arm_flex_l	arm_add_l	arm_rot_l	elbow_flex_l	pro_sup_l	wrist_flex_l	wrist_dev_l
      6.58000000	     -1.33199756	     -4.96399985	      2.15602602	      0.73302897	      0.92969421	      0.51730766	     12.88579496	      3.30473921	    -14.07400223	     19.88160250	     19.88160250	      9.89231819	     -5.12746604	     -4.25675464	     24.90762252	    -11.43429542	      0.77563515	     62.80431936	     62.80431936	     10.14994048	    -18.77230246	     13.16508869	    -10.12301611	      7.49962539	      0.75418990	     14.75363147	    -17.86265664	    -11.14665245	     48.87598310	     45.54019619	      0.00000000	      0.00000000	     -0.17295318	     -9.43724509	     -6.90535157	     54.38645360	     46.10863626	      0.00000000	      0.00000000
      6.59421429	     -1.50415694	     -4.86376137	      2.56126302	      0.73140068	      0.93057484	      0.51815685	     12.15176746	      3.36441147	    -14.35107120	     18.93937376	     18.93937376	      9.94074281	     -4.94515035	     -4.24190797	     26.32323042	    -11.28609498	      0.92048153	     60.27406403	     60.27406403	     10.62795378	    -18.76370386	     13.32023385	    -10.09706492	      7.25463823	      0.41615605	     16.53182000	    -17.84245821	    -11.16253028	     50.37254939	     45.49807904	      0.00000000	      0.00000000	     -0.48425658	     -9.46200760	     -6.98748571	     52.79101705	     46.10776096	      0.00000000	      0.00000000
      6.60842857	     -1.69746436	     -4.74917365	      2.94961531	      0.72977097	      0.93131891	      0.51889293	     11.48663914	      3.36359771	    -14.74750631	     18.08517816	     18.08517816	      9.90309756	     -4.56540339	     -4.69093023	     27.48267928	    -11.05533231	      1.02246985	     57.27269979	     57.27269979	     10.79255644	    -18.74392545	     12.83736537	    -10.07703639	      7.07690879	      0.69005152	     17.29844072	    -18.38171672	    -10.87091207	     53.41233064	     45.39008936	      0.00000000	      0.00000000	      0.28534828	     -8.97238748	     -7.89698229	     49.29046523	     46.19993497	      0.00000000	      0.00000000
      6.62264286	     -1.87431967	     -4.57832124	      3.32307782	      0.72817671	      0.93201757	      0.51956003	     10.82320829	      3.34035164	    -14.94684067	     17.26990785	     17.26990785	     10.00463381	     -4.44385691	     -4.59503085	     28.38882630	    -10.68489582	      1.10405174	     53.92154801	     53.92154801	     11.04676097	    -18.69940075	     12.98631205	    -10.08675467	      6.76630334	      0.54912170	     18.90779946	    -18.45397836	    -10.95762277	     54.87748920	     45.35202986	      0.00000000	      0.00000000	     -0.11260732	     -9.02399362	     -7.90947927	     48.35583873	     46.19303689	      0.00000000	      0.00000000
      6.63685714	     -2.02875251	     -4.52487105	      3.69728986	      0.72662223	      0.93253526	      0.52005284	     10.15113102	      3.39055806	    -15.41352495	     16.46863971	     16.46863971	     10.03561543	     -3.94652528	     -4.94943660	     29.07174625	    -10.40766685	      1.18082600	     50.22718029	     50.22718029	     10.83514027	    -18.56985811	     11.92097695	    -10.14339978	      6.70485038	      0.86894816	     19.48213747	    -19.09043293	    -10.84510593	     58.62699115	     45.23581934	      0.00000000	      0.00000000	      0.78516270	     -8.55467395	     -8.75119033	     44.72592032	     46.28030712	      0.00000000	      0.00000000
      6.65107143	     -2.21383376	     -4.37845175	      4.02199972	      0.72509031	      0.93294386	      0.52044402	      9.57990515	      3.36744855	    -15.60048220	     15.78956930	     15.78956930	     10.14733295	     -3.84853302	     -4.88599162	     29.59436501	     -9.92684991	      1.30048339	     46.31789613	     46.31789613	     10.96777715	    -18.34373131	     12.09867980	    -10.15773000	      6.46908518	      0.71214311	     21.08005424	    -19.05187009	    -10.96705542	     60.13868916	     45.19942470	      0.00000000	      0.00000000	      0.37208136	     -8.65574661	     -8.77802313	     43.77901327	     46.27410842	      0.00000000	      0.00000000
      6.66528571	     -2.40847149	     -4.32868057	      4.33408945	      0.72361454	      0.93305167	      0.52061495	      9.05534975	      3.39053385	    -15.99478461	     15.16693138	     15.16693138	     10.22022676	     -3.39772926	     -5.17351294	     29.94115305	     -9.54213988	      1.39911452	     42.12366780	     42.12366780	     10.34245878	    -17.98638560	     10.05839859	    -10.14135466	      6.43851440	      1.10513790	     21.68752584	    -19.60977835	    -11.12715495	     63.55831762	     45.11939598	      0.00000000	      0.00000000	      1.18641024	     -8.28248146	     -9.51313301	     40.49963945	     46.35393681	      0.00000000	      0.00000000
      6.67950000	     -2.72343041	     -4.28177757	      4.59312462	      0.72210102	      0.93282336	      0.52072281	      8.80884042	      3.40505125	    -16.14705865	     14.80595533	     14.80595533	     10.38655241	     -3.39998915	     -5.18620249	     30.41154549	     -9.11646621	      1.52846516	     38.08098264	     38.08098264	     10.64967226	    -16.98028721	     10.29624261	     -9.96507485	      6.32134542	      1.13706232	     23.21043232	    -19.74612504	    -11.24443937	     64.65984806	     45.09581302	      0.00000000	      0.00000000	      0.75993170	     -8.26753713	     -9.49808660	     39.97852307	     46.34365008	      0.00000000	      0.00000000
      6.69371429	     -2.76962554	     -4.23762685	      4.90933695	      0.72085662	      0.93292280	      0.52057899	      8.12456874	      3.43910254	    -16.51489908	     14.21391810	     14.21391810	     10.56626482	     -2.96534097	     -5.29244136	     30.37973239	     -8.63919314	      1.80574460	     33.82304494	     33.82304494	     10.53098062	    -15.92460975	      9.70249610	    -10.12176024	      6.33303956	      0.58030514	     24.78159149	    -19.25152563	    -11.10082711	     67.12245567	     45.02207302	      0.00000000	      0.00000000	      0.45410810	     -8.43497485	     -9.62130820	     38.23861482	     46.34629271	      0.00000000	      0.00000000
      6.70792857	     -2.98830844	     -4.23223509	      5.13237991	      0.71968823	      0.93251092	      0.52035644	      7.76128521	      3.45459499	    -16.84412383	     13.87609795	     13.87609795	     10.75185768	     -2.59027322	     -5.60067976	     30.39304134	     -8.30163450	      1.77995462	     29.48749808	     29.48749808	      9.57659179	    -14.47316419	      6.77808394	    -10.03776167	      6.34162987	      1.21257447	     25.11279599	    -19.90441037	    -11.13395401	     70.29213897	     44.95867714	      0.00000000	      0.00000000	      1.26750906	     -8.11474561	    -10.33674292	     35.33187748	     46.42933230	      0.00000000	      0.00000000
      6.72214286	     -3.14285226	     -4.28226360	      5.36807000	      0.71863278	      0.93210269	      0.52004286	      7.32791789	      3.56049603	    -17.05116794	     13.53817630	     13.53817630	     10.95761160	     -2.43557711	     -5.67665108	     30.45267861	     -8.01959982	      1.76745604	     25.69878879	     25.69878879	      9.74284785	    -12.27679917	      6.75348787	    -10.00261238	      6.40408638	      0.95950697	     26.57257247	    -19.51352252	    -11.17597417	     71.89029554	     44.92509712	      0.00000000	      0.00000000	      0.79498430	     -8.23934851	    -10.41125616	     34.50983868	     46.42754869	      0.00000000	      0.00000000
      6.73635714	     -3.32826152	     -4.29228607	      5.55940266	      0.71770022	      0.93157314	      0.51960018	      6.98066408	      3.59619766	    -17.18115512	     13.32876349	     13.32876349	     11.21646516	     -2.35612720	     -5.77239235	     30.48025500	     -7.70505342	      1.69474346	     22.18017364	     22.18017364	      9.81884006	    -10.07036470	      7.03659289	     -9.89175432	      6.39214467	      0.91567546	     27.83354542	    -19.30049767	    -11.11523803	     73.15523451	     44.89123776	      0.00000000	      0.00000000	      0.35885578	     -8.29855692	    -10.42887024	     33.90356645	     46.42104213	      0.00000000	      0.00000000
      6.75057143	     -3.36924745	     -4.43923782	      5.74462193	      0.71702304	      0.93104495	      0.51907161	      6.40292456	      3.78695176	    -17.53405311	     12.99761186	     12.99761186	     11.49350238	     -1.87839554	     -5.89182528	     30.50559621	     -7.64131668	      1.27238459	     19.32650344	     19.32650344	      9.86495588	     -7.41716096	      6.92785290	     -9.94358430	      6.59575172	      0.96644563	     28.71938736	    -19.27929416	    -10.84507139	     75.67975249	     44.83594511	      0.00000000	      0.00000000	      0.38870781	     -8.30740488	    -10.70105516	     32.23166211	     46.45134921	      0.00000000	      0.00000000
